<svg xmlns="http://www.w3.org/2000/svg" width="256" height="256"><path fill-opacity=".016" d="M0 128.004v128.004l128.25-.254 128.25-.254.254-127.75L257.008 0H0v128.004m.485.496c0 70.4.119 99.053.265 63.672.146-35.38.146-92.98 0-128C.604 29.153.485 58.1.485 128.5" fill="#1976D2" fill-rule="evenodd"/><path fill-opacity=".422" d="M103.601 61.531c-12.607 2.117-21.618 4.529-28.592 7.654-9.042 4.051-24.258 13.271-29.756 18.029-11.488 9.942-30.194 35.983-33.83 47.095-.935 2.855-2.762 7.212-4.061 9.683S5 148.998 5 149.627c0 .629-.75 3.466-1.667 6.305-2.083 6.449-1.167 7.616 6.667 8.504 21.041 2.383 24.938 3.297 31.844 7.47 3.727 2.252 7.296 4.094 7.932 4.094.635 0 3.983 1.543 7.44 3.428 10.757 5.869 28.561 11.507 42.784 13.549 3.575.514 10.55 1.568 15.5 2.343 10.909 1.708 35.202.735 43-1.721 23.609-7.438 34.923-12.29 43.9-18.826 10.671-7.771 12.589-8.278 30.06-7.95 8.229.155 16.713-.014 18.854-.376 3.633-.614 3.856-.847 3.331-3.472-.894-4.469-6.12-14.365-22.82-43.214-5.569-9.62-15.264-22.3-22.287-29.149-7.175-6.995-21.379-16.759-30.207-20.762-6.713-3.043-21.536-7.077-32.331-8.798-8.87-1.415-33.757-1.14-43.399.479M67.5 79.464c-2.2 1.338-5.8 3.407-8 4.598-10.505 5.689-21.909 17.545-33.447 34.773-4.56 6.808-17.442 34.109-16.527 35.024.304.305.814-.444 1.133-1.664.345-1.32 1.645-2.471 3.21-2.844 3.967-.945 5.184-2.284 8.211-9.029 3.997-8.91 13.801-23.019 20.04-28.843 12.257-11.441 15.72-13.635 30.807-19.521l9.428-3.678-4.654-.698c-2.56-.383-4.879-1.061-5.154-1.506-.757-1.225 2.349-3.645 8.456-6.589 3.431-1.654 4.37-2.393 2.497-1.967-1.65.376-5.435 1.022-8.411 1.436-4.686.652-5.163.571-3.559-.601 3.105-2.271.227-1.478-4.03 1.109m34.32 28.786c-.234 1.646-.891 2.172-2.447 1.958-1.257-.173-2.386.385-2.762 1.363-.543 1.416-.874 1.458-2.296.292-1.476-1.211-1.597-1.111-1.082.887.397 1.542.137 2.25-.827 2.25-.773 0-1.406.675-1.406 1.5s-.499 1.5-1.108 1.5c-.665 0-.872-.942-.519-2.352.325-1.293.303-2.639-.049-2.991-1.11-1.11-3.138 1.337-2.651 3.2.256.98-.24 2.369-1.103 3.085-1.363 1.131-1.581.924-1.656-1.57l-.086-2.872-.853 2.845c-.469 1.565-1.668 3.463-2.664 4.218-.996.756-1.339 1.388-.761 1.405.578.018 1.583-.5 2.233-1.151.651-.651 1.516-.852 1.921-.446.406.406.128 1.115-.618 1.576-.891.55-1.132 1.734-.702 3.446.444 1.772.247 2.627-.615 2.67-.698.035-.209.488 1.086 1.007 1.627.652 2.159 1.452 1.721 2.592-.381.993.204 2.54 1.471 3.888 1.356 1.443 1.721 2.475 1.028 2.904-1.91 1.18-1.143 3.312 1.425 3.957 1.375.345 2.5 1.054 2.5 1.577 0 .522.681.688 1.513.369.832-.32 2.111-.084 2.842.522 1.579 1.311 3 .281 1.774-1.287-.469-.601-1.149-2.33-1.51-3.842-.762-3.19.868-3.717 3.095-1 1.341 1.636 1.406 1.614.999-.326-.397-1.894-.005-2.061 4.484-1.913 3.827.126 5.216-.262 6.257-1.748 2.006-2.865 2.938-.291.977 2.701-1.039 1.586-1.418 3.451-1.022 5.029.623 2.482 2.822 3.664 2.341 1.257-.14-.698.522-1.12 1.5-.956 1.268.213 1.75-.377 1.75-2.143 0-2.413 2.335-4.18 4.09-3.095.501.309.91-.14.91-.997s.34-1.559.756-1.559c1.649 0 3.389-5.861 2.328-7.843-.84-1.569-.611-2.241 1.188-3.497 2.013-1.405 2.047-1.56.35-1.608-1.617-.045-1.791-.593-1.255-3.945.57-3.564.408-3.947-1.918-4.531-1.398-.35-3.041-.328-3.653.05-.731.452-.926-.021-.57-1.383.394-1.506-.04-2.259-1.592-2.762-2.889-.937-3.835-1.15-5.884-1.329-.963-.083-1.75-.827-1.75-1.652 0-1.815-1.652-1.995-2.292-.25-.366 1-.723 1-1.783 0-1.921-1.812-2.744-1.547-3.105 1m3.212 2.441c-.034 2.339 1.475 3.915 2.367 2.473.295-.478-.109-1.723-.899-2.767-1.389-1.835-1.437-1.825-1.468.294M84 125.441c0 .793.408 1.693.907 2.001.498.309.671-.34.383-1.441-.611-2.335-1.29-2.63-1.29-.56m138.254 6.059c3.368 6.82 6.032 15.227 5.235 16.518-.362.585-1.514.791-2.561.459-1.652-.524-1.826-.218-1.318 2.323.573 2.866.484 2.937-4.262 3.435-7.393.776-15.07 4.14-26.839 11.759-14.579 9.439-30.707 15.536-48.509 18.34-1.375.216-.475.462 2 .545 2.475.083 5.107.536 5.849 1.006 2.172 1.377-4.722 2.307-22.849 3.084l-16.5.706 15.142.163c27.227.292 49.461-6.021 68.526-19.456 12.536-8.834 17.021-10.33 31.071-10.358l11.739-.024-3.806-6.25c-2.094-3.437-5.948-10.525-8.565-15.75-2.617-5.225-5.223-9.95-5.79-10.5-.568-.55.079 1.25 1.437 4m-203.216 2.246c-4.096 8.766-4.165 9.098-1.759 8.491 2.928-.74 3.801-2.219 2.616-4.433-.641-1.199-.591-2.504.151-3.89.614-1.147.928-2.274.697-2.504-.23-.23-.997.821-1.705 2.336m8.212 25.943c.962.252 2.538.252 3.5 0 .962-.251.175-.457-1.75-.457s-2.712.206-1.75.457M152.5 185c1.1.473 2.675.859 3.5.859.945 0 .761-.317-.5-.859-1.1-.473-2.675-.859-3.5-.859-.945 0-.761.317.5.859m-29.75.74c3.438.196 9.063.196 12.5 0 3.438-.195.625-.355-6.25-.355s-9.687.16-6.25.355m-19 2.922c.688.278 1.813.278 2.5 0 .688-.277.125-.504-1.25-.504s-1.937.227-1.25.504" fill="#1976D2" fill-rule="evenodd"/><path fill-opacity=".517" d="M102 63.922c-16.185 3.156-22.174 5.057-31.758 10.082-14.483 7.592-22.54 13.427-30.763 22.278C28.487 108.114 15.188 128.183 12.496 137c-.42 1.375-2.083 5.307-3.696 8.738-1.613 3.431-2.681 6.645-2.373 7.144.308.498-.112 2.514-.934 4.48C4.672 159.327 4 161.349 4 161.854c0 1.129 5.646 2.115 22.816 3.987 5.144.561 10.39 1.719 11.715 2.587 1.319.865 3.11 1.572 3.979 1.572.869 0 4.948 2.272 9.064 5.05 7.55 5.095 20.461 10.672 32.426 14.006 10.954 3.053 36.105 7.058 43.5 6.927 22.722-.403 23.244-.485 40-6.277 23.708-8.195 27.495-9.904 34.561-15.6 9.066-7.31 12.739-8.174 33.758-7.939 18.77.211 20.784-.283 17.823-4.37-3.517-4.856-6.448-9.518-9.617-15.297-1.809-3.3-3.625-6.45-4.035-7-.41-.55-2.634-4.6-4.943-9-11.624-22.148-26.168-39.478-41.945-49.981-19.386-12.906-35.498-17.484-63.602-18.072-14.582-.305-19.804-.025-27.5 1.475m4 2.75c-18.27 2.918-27.94 6.362-46.46 16.55-8.329 4.582-22.546 19.132-31.391 32.126-8.109 11.915-19.01 34.779-19.618 41.147-.335 3.521-.221 3.787.943 2.202.768-1.046 1.478-1.341 1.691-.702.218.654 5.62 1.498 13.323 2.081 14.955 1.132 19.523 2.778 30.694 11.059 15.335 11.368 46.554 19.935 72.28 19.833 25.009-.098 52.944-8.137 67.538-19.435 8.767-6.787 15.034-9.487 24.785-10.68 4.776-.584 10.842-.855 13.48-.602 5.473.526 6.432-.238 4.358-3.473-2.996-4.673-7.8-13.551-12.054-22.278-2.412-4.95-6.027-10.8-8.031-13-3.617-3.969-3.601-3.916 1.96 6.907 5.369 10.45 6.799 16.447 3.779 15.852-1.126-.222-1.001 3.282.264 7.454.222.732-1.101 1.459-3.336 1.833-10.062 1.684-17.423 4.932-28.92 12.759-27.633 18.815-69.73 23.836-105.148 12.542-12.525-3.994-20.818-7.902-29.896-14.088-12.903-8.793-26.035-12.742-30.682-9.227-3.173 2.4-5.544 1.864-5.665-1.282-.332-8.614 1.983-14.713 10.453-27.538 6.58-9.964 9.003-12.666 18.622-20.759 8.615-7.25 17.153-11.464 35.518-17.532 8.823-2.915 12.047-4.343 10.013-4.437-1.65-.077-5.222-.921-7.939-1.877l-4.939-1.739 4.292-1.717c13.884-5.555 42.318-8.321 58.978-5.736 8.835 1.371 10.717.722 2.437-.84-3.206-.605-8.119-1.769-10.917-2.587-2.798-.819-7.748-1.567-11-1.665l-5.912-.176 7-.647c5.883-.544 5.005-.653-5.5-.687-6.875-.022-13.625.139-15 .359m48.813 8.011c.721.289 1.584.253 1.916-.079.332-.332-.258-.568-1.312-.525-1.165.048-1.402.285-.604.604m3.27.676c.23.198 1.767.662 3.417 1.031 2.191.49 2.595.397 1.5-.344-1.35-.914-5.92-1.552-4.917-.687m-44.577 25.762c-1.647.46-4.797.677-7 .482-2.404-.213-5.806.396-8.506 1.523-2.475 1.033-5.85 2.058-7.5 2.278-3.76.502-9.323 3.423-12.984 6.819-1.544 1.431-3.417 2.369-4.162 2.083-.837-.321-1.36.189-1.369 1.337-.009 1.021-.424 2.503-.924 3.293-.772 1.22-1.157 1.229-2.561.064-1.381-1.146-1.789-1.15-2.484-.026-.457.739-.599 1.948-.316 2.685.282.738-.034 1.341-.704 1.341-.67 0-.155.885 1.143 1.967l2.361 1.966-3.417.034c-1.879.018-3.123-.26-2.765-.618.614-.614-2.11-3.249-3.429-3.317-.337-.018-.397 1.093-.134 2.468s.87 2.5 1.35 2.5c.479 0 .764.787.633 1.75s.212 1.75.762 1.75.938-.562.861-1.25c-.181-1.633-.093-1.615 4.138.882 2.335 1.378 3.416 2.646 3.056 3.586-.37.963.456 1.837 2.443 2.587 3.835 1.448 3.813 2.583-.066 3.359-3.806.761-7.036 5.024-4.853 6.406 1.946 1.232 3.179 1.157 2.375-.144-.817-1.322 3.477-6.087 4.767-5.29.511.316.036 1.54-1.056 2.719L71.18 146.5l2.918 2.642c1.605 1.453 3.154 2.26 3.442 1.793.647-1.047 6.455-.735 6.458.346.001.43-.638 1.027-1.421 1.328-.782.3-1.702 1.273-2.043 2.162-.531 1.385-.342 1.365 1.324-.142 2.073-1.876 2.938-1.286 3.667 2.503.612 3.176 1.08 3.286 4.28 1.007 1.607-1.144 3.245-1.756 3.641-1.359.396.396 1.133.776 1.637.845.505.069 1.367.181 1.917.25s1.014.912 1.032 1.875c.025 1.407.501 1.216 2.426-.97 1.459-1.658 2.552-2.251 2.796-1.518.221.662 1.604 1.103 3.073.982 1.47-.122 2.673.223 2.673.767 0 1.677 2.595 1.094 4.5-1.011 2.325-2.57 3.109-2.52 3.951.25.503 1.655.817 1.854 1.189.75 1.707-5.06 2.803-6.162 5.707-5.736 2.184.321 3.038-.019 3.385-1.348.286-1.093 1.044-1.555 1.967-1.201 1.933.742 3.518-1.748 2.158-3.388-1.064-1.281-.382-3.327 1.108-3.327.466 0 .612.9.325 2-.625 2.387 2.173 2.843 3.072.5.316-.825 1.216-1.5 2-1.5.783 0 1.703-.726 2.043-1.613.408-1.063 1.34-1.426 2.728-1.062 1.916.5 2.057.234 1.546-2.918-.31-1.908-1.209-4.763-1.999-6.346-1.262-2.531-1.249-3.063.107-4.419 1.33-1.331 1.349-1.774.135-3.236-1.26-1.518-1.186-1.625.714-1.022 1.717.546 2.211.194 2.602-1.849.558-2.919-1.645-5.522-2.59-3.061-.322.84-1.274 1.526-2.117 1.526-1.753 0-2.045-1.564-.472-2.536 1.122-.694.344-6.309-1.086-7.836-.449-.479-.6-1.436-.335-2.126.512-1.334-3.858-2.982-6.888-2.598-1.015.129-1.75-.435-1.75-1.341 0-1.814 3.639-2.146 4.226-.386.415 1.247 2.774.288 2.774-1.128 0-1.73-5.212-2.14-7.571-.595-1.297.85-2.937 1.539-3.644 1.531-1.043-.013-1.043-.169.004-.834.779-.494-.487-.818-3.196-.818-2.468 0-5.073-.461-5.79-1.024-.8-.63-2.458-.702-4.297-.188m29.161 11.546c-.956.955-.822 2.333.226 2.333.491 0 1.152-.675 1.469-1.5.585-1.524-.481-2.048-1.695-.833m-79.332 23.449c.351 1.311.644 3.037.651 3.834.01 1.042.319 1.145 1.099.365 1.44-1.44.78-5.538-.987-6.121-1.045-.344-1.239.144-.763 1.922m11.208 8.815c-.317.512-.118 1.213.441 1.559.559.345 1.016-.074 1.016-.931 0-1.757-.6-2.015-1.457-.628M135 149.882c0 .55.45 1.278 1 1.618.55.34 1 .168 1-.382s-.45-1.278-1-1.618c-.55-.34-1-.168-1 .382m-82.276 16.171c.794 3.036 7.277 7.191 8.996 5.764 1.079-.895.407-1.788-3.362-4.468-5.478-3.895-6.367-4.1-5.634-1.296" fill="#1976D2" fill-rule="evenodd"/><path fill-opacity=".586" d="M109.75 64.662c.688.278 1.813.278 2.5 0 .688-.277.125-.504-1.25-.504s-1.937.227-1.25.504m-5.937 1.021c.721.289 1.584.253 1.916-.079.332-.332-.258-.568-1.312-.525-1.165.048-1.402.285-.604.604m-6.063.979c.688.278 1.813.278 2.5 0 .688-.277.125-.504-1.25-.504s-1.937.227-1.25.504m15.723 6.286c-3.864.445-9.623 1.39-12.798 2.1l-5.771 1.292 6.798 1.94c3.739 1.068 11.073 2.229 16.298 2.58l9.5.64-10.5.703c-15.231 1.021-37.395 7.147-53.5 14.788-9.756 4.629-22.627 15.452-29.539 24.839-6.533 8.871-12.658 20.966-13.516 26.686-.839 5.597.208 7.055 3.869 5.387 5.184-2.362 20.048 2.236 31.027 9.599 14.076 9.441 30.405 16.02 47.163 19.004 10.846 1.931 32.87 2.185 43.996.509 16.271-2.453 36.433-10.591 49.5-19.982 5.848-4.202 15.729-8.325 22.778-9.503l4.278-.715-.629-3.658c-.345-2.011-2.14-6.694-3.987-10.407-1.848-3.713-2.892-6.75-2.32-6.75 2.783 0-2.202-12.579-7.468-18.845-2.009-2.389-3.63-5.089-3.603-6 .03-.987 3.868 2.378 9.516 8.345 7.356 7.77 9.787 11.062 10.901 14.764 1.575 5.231 6.595 14.733 7.784 14.735.412.001.75.915.75 2.032 0 1.118.675 2.291 1.5 2.607.825.317 1.5 1.192 1.5 1.945 0 .753.877 2.81 1.948 4.572 1.072 1.762 1.72 3.573 1.441 4.024-.279.452-5.81.821-12.291.821-14.729 0-20.297 1.741-31.512 9.855-4.447 3.217-9.025 6.342-10.172 6.944-4.914 2.581-21.607 8.287-29.914 10.226-11.323 2.643-33.35 3.641-47 2.13-19.743-2.186-41.167-9.36-53.21-17.819-13.858-9.734-16.002-10.522-31.29-11.499-7.425-.474-14.484-.63-15.688-.346-2.008.474-2.15.208-1.729-3.238l.458-3.753-1.477 4.46c-.812 2.453-1.373 4.565-1.245 4.692.127.127 3.37.529 7.206.894 3.836.364 7.227.813 7.534.999.308.185 3.908.606 8 .935 4.093.328 8.619.737 10.059.907 1.44.17 6.702 3.041 11.694 6.38 13.987 9.355 29.311 15.575 44.688 18.138 3.3.55 9.375 1.772 13.5 2.716 5.797 1.327 11.516 1.674 25.189 1.527l17.689-.19 15.311-5.424c22.524-7.981 29.358-11.033 34.601-15.454 9.202-7.759 12.219-8.533 33.376-8.558 10.267-.012 19.042-.403 19.5-.87.459-.466-.629-2.073-2.416-3.572s-3.25-3.024-3.25-3.388c0-.364-1.31-2.806-2.91-5.427-4.939-8.087-9.045-15.539-11.499-20.867-3.241-7.036-14.787-24.395-15.807-23.764-.459.283-.71.085-.559-.439.482-1.674-4.25-7.294-5.525-6.562-.66.378-.878.331-.485-.104 1.057-1.171-1.131-4.699-2.42-3.902-.607.375-.828.236-.491-.31.337-.546-1.275-2.753-3.582-4.904-2.615-2.44-3.259-2.813-1.708-.99l2.486 2.923-3.75-2.792c-3.604-2.682-5.098-4.448-2.5-2.953.726.418.901.338.417-.191-.459-.5-1.134-.949-1.5-.996-2.102-.273-4.065-1.77-3.507-2.673.372-.601.171-.754-.469-.359-.615.38-2.139-.33-3.386-1.577-1.247-1.247-2.726-2.284-3.287-2.303-.56-.02-3.489-1.328-6.509-2.908-17.522-9.165-13.308-2.281 6.991 11.42 4.666 3.149 10.639 8.791 13.22 12.486 1.577 2.258.882 1.861-2.812-1.606-7.042-6.608-17.087-13.414-25.615-17.354-14.91-6.889-41.121-10.685-59.32-8.592m-39.966 1.041c-.35.566.051.734.941.393 1.732-.665 2.049-1.382.611-1.382-.518 0-1.216.445-1.552.989M66 78.038c-2.475 1.667-5.85 3.689-7.5 4.494-12.743 6.219-35.907 34.133-43.498 52.418-1.495 3.603-3.74 8.705-4.989 11.338-1.248 2.634-2.055 5.004-1.793 5.266.263.262 2.906-5.043 5.875-11.789 9.109-20.7 25.585-43.154 38.345-52.26C55.913 85.027 59.019 83 59.343 83c.324 0 3.374-1.8 6.778-4 3.404-2.2 5.782-3.998 5.284-3.996-.498.003-2.93 1.368-5.405 3.034M74 94c-.901.582-1.025.975-.309.985.655.008 1.469-.435 1.809-.985.767-1.242.421-1.242-1.5 0m58.6 1.733c-.421.422-5.116.819-10.433.882-12.695.15-20.535 1.06-28.317 3.285-7.345 2.1-17.361 6.499-18.315 8.043-.359.582-1.32 1.057-2.136 1.057-.815 0-2.457.908-3.648 2.017-1.191 1.11-3.826 2.465-5.855 3.011-2.03.547-3.948 1.664-4.262 2.483-.314.819-1.168 1.489-1.897 1.489-1.674 0-8.216 8.508-10.207 13.274-2.197 5.259-1.024 9.043 4.499 14.509 7.608 7.53 9.659 9.217 11.209 9.217 1.508 0 3.952 1.841 9.493 7.148 2.087 1.999 3.904 2.919 5.134 2.598 1.115-.292 2.563.272 3.496 1.362 1.318 1.54 2.068 1.68 4.356.809 2.448-.93 3.016-.735 4.955 1.696 1.83 2.295 2.44 2.539 3.715 1.481.839-.697 2.019-.961 2.622-.588.604.373 2.967.893 5.252 1.155 2.285.263 4.398.518 4.697.567.298.049 1.217-.207 2.042-.569.825-.363 3.525-.298 6 .144 4.388.783 11-.345 11-1.877 0-.406.9-.503 2-.216 1.503.393 2 .031 2-1.457 0-1.644.68-1.98 4-1.98 2.23 0 4.031.493 4.07 1.113.039.613.424.214.856-.886s1.638-2.046 2.68-2.102c4.473-.241 5.387-.44 5.276-1.148-.347-2.196.32-3.25 2.059-3.25 1.068 0 2.224-.457 2.569-1.016.346-.559 1.117-.715 1.714-.346.65.402.797.205.366-.492-1.343-2.174.493-5.11 3.718-5.946 3.377-.875 3.756-2.099 3.856-12.45.024-2.531.491-3.75 1.436-3.75.77 0 1.4-.675 1.4-1.5s.45-1.5 1-1.5 1-.873 1-1.941.492-2.245 1.094-2.617c.602-.372.883-1.783.624-3.136-.258-1.352.339-4.112 1.327-6.132.988-2.021 1.382-3.824.876-4.007-.507-.184-.921-1.66-.921-3.282 0-1.698-.636-3.192-1.5-3.523-.825-.317-1.5-1.178-1.5-1.913 0-.971-1.081-1.207-3.948-.862-3.232.39-4.145.108-5.035-1.556-.598-1.117-1.972-2.031-3.052-2.031-1.081 0-1.965-.413-1.965-.917 0-1.079-8.677-3.083-13.349-3.083-1.788 0-3.709-.457-4.268-1.017-.559-.559-1.361-.671-1.783-.25M163.5 111c-.34.55-.141 1 .441 1s1.059-.45 1.059-1-.198-1-.441-1-.719.45-1.059 1m1.115 6.465c-1.876 2.862-1.993 3.535-.615 3.535.55 0 1-.527 1-1.171s.745-1.994 1.655-3 1.187-1.829.615-1.829c-.572 0-1.767 1.109-2.655 2.465m60.635 45.263c2.063.216 5.438.216 7.5 0 2.063-.215.375-.392-3.75-.392s-5.812.177-3.75.392" fill="#1976D2" fill-rule="evenodd"/></svg>